@startuml

@startuml

package "**«Aggregate» Representative**" #DDDDDD {
        entity "Representative" as entity_representative {
        }
        class "Position" as vObject_position <<(V, #7E84F7)>> {
        }
        class "RepresentativeName" as vObject_representativeName <<(V, #7E84F7)>> {
        }
        class "RepresentativeEmail" as vObject_representativeEmail <<(V, #7E84F7)>> {
        }
        class "RepresentativePassword" as vObject_representativePassword <<(V, #7E84F7)>> {
        }
        class "RepresentativePhoneNumber" as vObject_representativePhoneNumber <<(V, #7E84F7)>> {
        }
        class "RepresentativeStatus" as vObject_representativeStatus <<(V, #7E84F7)>> {
        Active
        Inactive
        }

        entity_representative *-- vObject_position
        entity_representative *-- vObject_representativeName
        entity_representative *-- vObject_representativeEmail
        entity_representative *-- vObject_representativePassword
        entity_representative *-- vObject_representativePhoneNumber
        entity_representative *-- vObject_representativeStatus
}


package "**«Aggregate» Customer**" #DDDDDD {

        entity "Customer" as entity_customer <<entity root>> {
        }
        class "VatNumber" as vObject_vatNumber <<(V, #7E84F7)>> {
        }
        class "Address" as vObject_customerAddress <<(V, #7E84F7)>> {
        }
        class "Email" as vObject_email <<(V, #7E84F7)>> {
        }

        class "Name" as vObject_name <<(V, #7E84F7)>> {
        }

        class "Password" as vObject_password <<(V, #7E84F7)>> {
        }

        class "Phone Number" as vObject_phoneNumber <<(V, #7E84F7)>> {
        }



        class "CustomerStatus" as vObject_customerStatus <<(V, #7E84F7)>> {
                    Deleted
                    Infringement
                    Created
                    Regular
                    VIP
        }

        entity_customer *--down vObject_customerStatus
        entity_customer *--down vObject_customerAddress
        entity_customer *--down vObject_vatNumber
        entity_customer *--down vObject_email
        entity_customer *--down vObject_name
        entity_customer *--down vObject_password
        entity_customer *--down vObject_phoneNumber


}

package "**«Aggregate» Drone**" #DDDDDD {

        entity "Drone" as entity_drone <<entity root>> {
        }

        class "SerialNumber" as vObject_serialNumber <<id>> <<(V, #7E84F7)>> {
        }

        class "DroneStatus" as vObject_droneStatus <<(V, #7E84F7)>> {
            Active
            Inactive
        }


        entity_drone *--down vObject_droneStatus
        entity_drone *--down vObject_serialNumber
}

package "**«Aggregate» DSL**" #DDDDDD {
        entity "DSL" as entity_DSL {
        }
        class "FilePath" as vObject_filePath <<(V, #7E84F7)>> {
        }
        class "Version" as vObject_version <<(V, #7E84F7)>> {
        }
        entity_DSL *--down vObject_filePath
        entity_DSL *--down vObject_version

}


package "**«Aggregate» Plugin**" #DDDDDD {
    entity "Plugin" as entity_Plugin <<entity root>> {
    }
    class "PluginName" as vObject_pluginName <<(V, #7E84F7)>> {
    }
    class "PluginDescription" as vObject_pluginDescription <<(V, #7E84F7)>> {
    }
    class "PluginType" as vObject_pluginType <<(V, #7E84F7)>> {
        Template
        DSL
        Drone_Language
    }
   entity_Plugin *-- vObject_pluginName
   entity_Plugin *-- vObject_pluginDescription
   entity_Plugin *-- vObject_pluginType
}

package "**«Aggregate» DroneModel**" #DDDDDD {

    entity "DroneModel" as entity_droneModel  <<entity root>> {
    }
    entity "DroneWindBehavior" as entity_windBehavior {
    }
    entity "Wind Interval" as entity_windInterval {
    }
    class "ModelName" as vObject_modelName  <<(V, #7E84F7)>> {
    }
    class "Manufacturer" as vObject_manufacturer <<(V, #7E84F7)>> {
    }
    class "isActive" as vObject_isActive <<(V, #7E84F7)>> {
                        True
                        False
    }
    class "Max" as vObject_max <<(V, #7E84F7)>> {
    }
    class "Min" as vObject_min <<(V, #7E84F7)>> {
    }
    class "Tolerance" as vObject_tolerance <<(V, #7E84F7)>> {
    }

    entity_droneModel "1..*"-->"1" entity_windBehavior: "has"
    entity_windBehavior "1..*"-->"1..*" entity_windInterval: "contains"
    entity_droneModel *--down vObject_modelName
    entity_droneModel *--down vObject_manufacturer
    entity_droneModel *--down vObject_isActive
    entity_windInterval *--down vObject_min
    entity_windInterval *--down vObject_max
    entity_windInterval *--down vObject_tolerance

}

package "**«Aggregate» ShowProposal**" #DDDDDD {

    entity "ShowProposal" as entity_showProposal  <<entity root>> {
    }
    class "Document" as vObject_document <<(V, #7E84F7)>> {
    }
    class "DroneListItem" as entity_droneListItem {
    }
    class "FigureListItem" as entity_figureListItem {
    }
    class "ProposalAnswerFeedback" as vObject_proposalFeedback <<(V, #7E84F7)>>{
    }
    class "GeoLocation" as vObject_geoLocation <<(V, #7E84F7)>> {
    }
    class "Date" as vObject_date <<(V, #7E84F7)>> {
    }
    class "Time" as vObject_time <<(V, #7E84F7)>> {
    }
    class "Duration" as vObject_duration <<(V, #7E84F7)>> {
    }
    class "NumberOfDrones" as vObject_numberOfDrones <<(V, #7E84F7)>> {
    }
    class "ProposalNumber" as vObject_proposalNumber <<(V, #7E84F7)>> {
    }
    class "InsuranceAmount" as vObject_insuranceAmount <<(V, #7E84F7)>> {
    }
    class "ShowStatus" as vObject_showStatus <<(V, #7E84F7)>> {
        Accepted
        Declined
        Pending
        Sent
        Answered
    }
    class "videoLink" as vObject_videoLink <<(V, #7E84F7)>> {
    }
    class "Sequence" as vObject_sequence <<(V, #7E84F7)>> {
    }
    class "quantityDroneModel" as vObject_quantityDroneModel <<(V, #7E84F7)>> {
    }

    entity_showProposal *-- vObject_date
    entity_showProposal *-- vObject_duration
    entity_showProposal *-- vObject_insuranceAmount
    entity_showProposal *-- vObject_proposalNumber
    entity_showProposal *-- vObject_numberOfDrones
    entity_showProposal *-- vObject_document
    entity_showProposal *-- vObject_time
    entity_showProposal *-- vObject_showStatus
    entity_showProposal *-- vObject_videoLink
    entity_showProposal *-- vObject_geoLocation
    entity_showProposal *-- vObject_proposalFeedback

    entity_showProposal "1"-->"1" entity_figureListItem: contains
    entity_showProposal "1"-->"1" entity_droneListItem: contains

    entity_figureListItem *-- vObject_sequence
    entity_droneListItem *-- vObject_quantityDroneModel

}

package "**«Aggregate» Template**" #DDDDDD {
    entity "Template" as entity_template  <<entity root>> {
    }
    class "Name" as vObject_templateName <<(V, #7E84F7)>> {
    }
    class "Content" as vObject_content <<(V, #7E84F7)>> {
    }

    entity_template *-- vObject_templateName
    entity_template *-- vObject_content

}


package "**«Aggregate» ShowRequest**" #DDDDDD {

    entity "ShowRequest" as entity_showRequest  <<entity root>> {
    }
    class "RequestDate" as vObject_requestDate <<(V, #7E84F7)>> {
    }
    class "Place" as vObject_showPlace <<(V, #7E84F7)>> {
    }
    class "RequestedShowDate" as vObject_requestedShowDate <<(V, #7E84F7)>> {
    }
    class "RequestedNumberDrones" as vObject_requestedNumberDrones <<(V, #7E84F7)>> {
    }
    class "RequestedDuration" as vObject_requestedDuration <<(V, #7E84F7)>> {
    }
    class "RequestStatus" as vObject_requestStatus <<(V, #7E84F7)>> {
        Accepted
        Declined
        Pending
    }
    entity "RequestedFigures" as entity_requestedFigures{
    }
    class "Sequence" as vObject_sequence <<(V, #7E84F7)>> {
    }


    entity_showRequest "1"-->"1" entity_requestedFigures: "contains"

    entity_showRequest *--down vObject_showPlace
    entity_showRequest *--down vObject_requestedShowDate
    entity_showRequest *--down vObject_requestedNumberDrones
    entity_showRequest *--down vObject_requestedDuration
    entity_showRequest *--down vObject_requestStatus
    entity_showRequest *--down vObject_requestDate

    entity_requestedFigures *--down vObject_sequence
}


package "**«Aggregate» Figure**" #DDDDDD {

        entity "Figure" as entity_figure <<entity root>> {
        }

        class "Description" as vObject_description <<(V, #7E84F7)>> {
        }
        class "Version" as vObject_figureVersion <<(V, #7E84F7)>> {
        }
        class "CreatedBy" as vObject_createdBy <<(V, #7E84F7)>> {
        }
        class "Keywords" as vObject_keywords <<(V, #7E84F7)>> {
        }
        class "Exclusive" as vObject_exclusive <<(V, #7E84F7)>> {
            True
            False
        }
        class "isActive" as vObject_isActive <<(V, #7E84F7)>> {
                    True
                    False
        }

        entity_figure *--down vObject_isActive
        entity_figure *--down vObject_exclusive
        entity_figure *--down vObject_createdBy
        entity_figure *--down vObject_description
        entity_figure *--down vObject_figureVersion

        entity_figure *--down vObject_keywords

}

package FigureCategory #DDDDDD {

        entity "FigureCategory" as entity_figureCategory  <<entity root>> {
        }
        class "Description" as vObject_description <<(V, #7E84F7)>> {
        }
        class "Name" as vObject_name <<(V, #7E84F7)>> {
        }
        class "isActive" as vObject_isActive <<(V, #7E84F7)>> {
            True
            False
        }

        entity_figureCategory *--down vObject_description
        entity_figureCategory *--down vObject_name
        entity_figureCategory *--down vObject_isActive

}

entity_showRequest "1"<-down---"1..*" entity_showProposal: "responds to"
entity_customer "1"-down>"1..*" entity_showRequest: "requests"
entity_figure "*"-->"1" entity_customer: "created by"
entity_figureListItem "*" --down> "1..*" entity_figure:"contains"
entity_requestedFigures "*" -->"1..*" entity_figure:"contains"
entity_figureCategory "1"<--up- "*" entity_figure: "can be"
entity_droneListItem "*" --up-> "1..*" entity_droneModel: "contains"
entity_droneModel "1"<--up "*" entity_drone: "contains"
entity_template "1" <-down--- "*" entity_showProposal: "contains"
entity_Plugin "1" <-up-- "1..*" entity_DSL: "contains"
entity_customer "1"---"1..*"  entity_representative: "is associated with"
entity_figure "*" --> "1" entity_DSL: "contains"
@enduml
